<svg xmlns="http://www.w3.org/2000/svg" xmlns:xlink="http://www.w3.org/1999/xlink" width="50" zoomAndPan="magnify" viewBox="0 0 37.5 37.499999" height="50" preserveAspectRatio="xMidYMid meet" version="1.0"><defs><clipPath id="0536b7b410"><path d="M 2.152344 0 L 34.71875 0 L 34.71875 37 L 2.152344 37 Z M 2.152344 0 " clip-rule="nonzero"/></clipPath></defs><g clip-path="url(#0536b7b410)"><path fill="#356bcc" d="M 5.980469 16.359375 L 5.980469 30.761719 C 6.625 30.519531 7.324219 30.316406 8.070312 30.164062 C 9.089844 29.957031 10.1875 29.84375 11.324219 29.84375 C 12.800781 29.84375 14.203125 30.03125 15.453125 30.367188 C 16.371094 30.617188 17.210938 30.945312 17.941406 31.339844 L 17.941406 17.027344 C 17.179688 16.535156 16.234375 16.128906 15.164062 15.839844 C 14.007812 15.53125 12.703125 15.355469 11.324219 15.355469 C 10.253906 15.355469 9.230469 15.460938 8.292969 15.652344 C 7.453125 15.820312 6.671875 16.0625 5.980469 16.359375 Z M 31.019531 30.761719 L 31.019531 16.359375 C 30.324219 16.0625 29.546875 15.820312 28.707031 15.652344 C 27.769531 15.460938 26.746094 15.355469 25.675781 15.355469 C 24.292969 15.355469 22.992188 15.53125 21.835938 15.839844 C 20.765625 16.128906 19.820312 16.535156 19.058594 17.027344 L 19.058594 31.339844 C 19.789062 30.945312 20.628906 30.617188 21.546875 30.367188 C 22.796875 30.03125 24.199219 29.84375 25.675781 29.84375 C 26.8125 29.84375 27.910156 29.957031 28.929688 30.164062 C 29.675781 30.316406 30.375 30.519531 31.019531 30.761719 Z M 32.140625 18.210938 C 32.527344 18.328125 33.042969 18.484375 33.496094 18.632812 C 33.882812 18.757812 34.242188 18.882812 34.46875 18.976562 C 34.6875 19.050781 34.847656 19.261719 34.847656 19.507812 L 34.847656 35.578125 C 34.847656 35.652344 34.832031 35.730469 34.800781 35.800781 C 34.675781 36.085938 34.347656 36.214844 34.066406 36.089844 C 33.125 35.679688 32.039062 35.351562 30.851562 35.125 C 29.707031 34.910156 28.464844 34.792969 27.160156 34.792969 C 25.480469 34.792969 23.894531 34.988281 22.488281 35.339844 C 21.042969 35.703125 19.789062 36.222656 18.8125 36.855469 C 18.632812 36.980469 18.390625 36.988281 18.195312 36.863281 C 17.21875 36.226562 15.960938 35.703125 14.511719 35.339844 C 13.101562 34.988281 11.519531 34.792969 9.839844 34.792969 C 8.535156 34.792969 7.292969 34.910156 6.144531 35.125 C 4.976562 35.347656 3.90625 35.671875 2.972656 36.074219 C 2.894531 36.113281 2.804688 36.136719 2.710938 36.136719 C 2.402344 36.136719 2.152344 35.886719 2.152344 35.578125 L 2.152344 19.507812 C 2.152344 19.292969 2.277344 19.085938 2.488281 18.996094 C 2.710938 18.898438 3.089844 18.765625 3.503906 18.632812 C 3.957031 18.484375 4.472656 18.328125 4.859375 18.210938 L 4.859375 16 C 4.859375 15.761719 5.007812 15.558594 5.21875 15.476562 C 6.058594 15.085938 7.019531 14.773438 8.070312 14.558594 C 9.089844 14.347656 10.1875 14.234375 11.324219 14.234375 C 12.800781 14.234375 14.203125 14.425781 15.453125 14.761719 C 16.613281 15.074219 17.648438 15.519531 18.5 16.058594 C 19.347656 15.519531 20.386719 15.074219 21.546875 14.761719 C 22.796875 14.425781 24.199219 14.234375 25.675781 14.234375 C 26.8125 14.234375 27.910156 14.347656 28.929688 14.558594 C 29.976562 14.773438 30.941406 15.085938 31.78125 15.476562 C 31.992188 15.558594 32.140625 15.761719 32.140625 16 Z M 4.859375 19.375 L 4.859375 31.605469 C 4.859375 31.914062 5.109375 32.167969 5.417969 32.167969 C 5.519531 32.167969 5.609375 32.140625 5.691406 32.097656 C 6.457031 31.738281 7.335938 31.453125 8.292969 31.257812 C 9.230469 31.066406 10.253906 30.960938 11.324219 30.960938 C 12.703125 30.960938 14.007812 31.136719 15.164062 31.449219 C 16.335938 31.765625 17.355469 32.222656 18.152344 32.777344 C 18.246094 32.851562 18.367188 32.898438 18.5 32.898438 C 18.632812 32.898438 18.75 32.851562 18.847656 32.777344 C 19.640625 32.222656 20.664062 31.765625 21.835938 31.449219 C 22.992188 31.136719 24.292969 30.960938 25.675781 30.960938 C 26.746094 30.960938 27.769531 31.066406 28.707031 31.257812 C 29.664062 31.453125 30.542969 31.738281 31.308594 32.097656 C 31.386719 32.140625 31.480469 32.167969 31.578125 32.167969 C 31.886719 32.167969 32.140625 31.914062 32.140625 31.605469 L 32.140625 19.375 C 32.453125 19.472656 32.8125 19.585938 33.148438 19.695312 C 33.363281 19.761719 33.5625 19.828125 33.730469 19.890625 L 33.730469 34.753906 C 32.910156 34.453125 32.011719 34.210938 31.058594 34.027344 C 29.835938 33.796875 28.523438 33.671875 27.160156 33.671875 C 25.390625 33.671875 23.714844 33.882812 22.21875 34.257812 C 20.792969 34.613281 19.527344 35.117188 18.5 35.738281 C 17.46875 35.117188 16.207031 34.613281 14.78125 34.257812 C 13.285156 33.882812 11.605469 33.671875 9.839844 33.671875 C 8.476562 33.671875 7.160156 33.796875 5.941406 34.027344 C 4.984375 34.210938 4.089844 34.453125 3.269531 34.753906 L 3.269531 19.890625 C 3.4375 19.828125 3.636719 19.761719 3.851562 19.695312 C 4.183594 19.585938 4.542969 19.472656 4.859375 19.375 Z M 10.769531 5.296875 L 10.769531 9.808594 C 11.5625 10.152344 12.613281 10.441406 13.84375 10.648438 C 15.214844 10.882812 16.800781 11.015625 18.5 11.015625 C 20.195312 11.015625 21.785156 10.882812 23.15625 10.648438 C 24.386719 10.441406 25.4375 10.152344 26.226562 9.808594 L 26.226562 5.296875 L 18.621094 6.984375 C 18.535156 7.003906 18.449219 7.003906 18.367188 6.984375 Z M 10.285156 4.046875 L 7.878906 3.515625 L 18.5 1.15625 L 29.121094 3.515625 L 26.714844 4.046875 C 26.683594 4.050781 26.648438 4.058594 26.617188 4.070312 L 18.5 5.871094 L 10.382812 4.070312 C 10.351562 4.058594 10.316406 4.050781 10.285156 4.046875 Z M 10 10.683594 C 9.796875 10.601562 9.652344 10.398438 9.652344 10.164062 L 9.652344 5.050781 L 5.183594 4.058594 C 4.882812 3.992188 4.691406 3.695312 4.757812 3.394531 C 4.808594 3.171875 4.984375 3.011719 5.191406 2.96875 L 18.378906 0.0429688 C 18.464844 0.0234375 18.550781 0.0273438 18.628906 0.046875 L 31.816406 2.96875 C 32.117188 3.035156 32.304688 3.332031 32.238281 3.632812 C 32.191406 3.855469 32.015625 4.019531 31.804688 4.058594 L 30.34375 4.382812 L 30.34375 7.285156 C 30.34375 7.59375 30.09375 7.84375 29.785156 7.84375 C 29.476562 7.84375 29.226562 7.59375 29.226562 7.285156 L 29.226562 4.632812 L 27.347656 5.050781 L 27.347656 10.164062 C 27.347656 10.398438 27.203125 10.601562 26.996094 10.683594 C 26.085938 11.128906 24.828125 11.496094 23.339844 11.75 C 21.902344 11.996094 20.25 12.132812 18.5 12.132812 C 16.746094 12.132812 15.097656 11.996094 13.660156 11.75 C 12.171875 11.496094 10.910156 11.128906 10 10.683594 Z M 10 10.683594 " fill-opacity="1" fill-rule="evenodd"/></g></svg>